#N canvas 465 57 975 566 10;
#X obj 412 61 snapshot~;
#X obj 480 46 *~ 1000;
#X obj 536 61 threshold~ 440 4 410 100;
#X obj 480 19 r~ x-axis2;
#X msg 536 91 1;
#X msg 491 94 0;
#X obj 452 93 max;
#X obj 412 117 s maxaccel2;
#X obj 571 190 dac~ 1 2;
#X obj 636 137 r volume2;
#X obj 573 117 readsf~ 2;
#X obj 636 117 r volume2;
#X msg 573 91 open bass.wav \, 2;
#X obj 572 166 *~ 0;
#X obj 615 166 *~ 0;
#X obj 520 128 metro 1;
#X floatatom 407 94 5 0 0 0 - - -;
#X obj 491 75 del 1;
#X obj 214 61 snapshot~;
#X obj 118 46 *~ 1000;
#X obj 26 83 threshold~ 440 4 410 100;
#X msg 194 98 1;
#X msg 227 99 0;
#X obj 272 123 max;
#X obj 61 212 dac~ 1 2;
#X obj 63 139 readsf~ 2;
#X msg 63 113 open bass.wav \, 2;
#X obj 62 188 *~ 0;
#X obj 105 188 *~ 0;
#X obj 215 123 metro 1;
#X floatatom 307 124 5 0 0 0 - - -;
#X obj 227 148 del 1;
#X obj 118 19 r~ x-axis1;
#X obj 126 139 r volume1;
#X obj 126 159 r volume1;
#X obj 272 147 s maxaccel1;
#X connect 0 0 6 0;
#X connect 1 0 2 0;
#X connect 1 0 0 0;
#X connect 2 0 12 0;
#X connect 2 0 4 0;
#X connect 2 0 17 0;
#X connect 3 0 1 0;
#X connect 4 0 15 0;
#X connect 5 0 6 1;
#X connect 5 0 15 0;
#X connect 6 0 16 0;
#X connect 6 0 7 0;
#X connect 9 0 13 1;
#X connect 10 0 13 0;
#X connect 10 1 14 0;
#X connect 11 0 14 1;
#X connect 12 0 10 0;
#X connect 13 0 8 0;
#X connect 14 0 8 1;
#X connect 15 0 0 0;
#X connect 16 0 6 1;
#X connect 17 0 5 0;
#X connect 18 0 23 0;
#X connect 19 0 20 0;
#X connect 19 0 18 0;
#X connect 20 0 26 0;
#X connect 20 0 21 0;
#X connect 20 0 31 0;
#X connect 21 0 29 0;
#X connect 22 0 23 1;
#X connect 22 0 29 0;
#X connect 23 0 30 0;
#X connect 23 0 35 0;
#X connect 25 0 27 0;
#X connect 25 1 28 0;
#X connect 26 0 25 0;
#X connect 27 0 24 0;
#X connect 28 0 24 1;
#X connect 29 0 18 0;
#X connect 30 0 23 1;
#X connect 31 0 22 0;
#X connect 32 0 19 0;
#X connect 33 0 28 1;
#X connect 34 0 27 1;
