#N canvas -8 -8 1536 781 10;
#X obj 342 180 -;
#X obj 342 202 abs;
#X obj 342 225 s differnce;
#X obj 541 137 -;
#X obj 541 170 abs;
#X obj 541 202 s differnce;
#X obj 738 306 delwrite~ phase2 100;
#X obj 608 306 delwrite~ phase1 100;
#X obj 758 412 *~ 2;
#X obj 758 432 +~ 2;
#X obj 847 454 *~ 2;
#X obj 846 477 +~ 2;
#X obj 846 503 vd~ phase2;
#X obj 847 410 wrap~;
#X obj 757 355 phasor~;
#X obj 846 389 +~ 0.5;
#X obj 758 389 cos~;
#X obj 847 430 cos~;
#X obj 846 526 *~ 0.8;
#X obj 619 427 *~ 0.8;
#X text 919 505 <-- Read from delay line 2;
#X text 682 504 <-- Read from delay line 1;
#X obj 618 504 vd~ phase1;
#X text 860 355 <-- Low Frequency Oscillator (LFO);
#X text 984 310 <-- Depth (try 2.4) 0-3;
#X text 989 291 <-- Speed (try 0.7)0 -10;
#X obj 864 307 loadbang;
#X msg 896 326 0;
#X obj 57 165 r~ output;
#X obj 757 554 s~ output;
#X msg 864 326 0;
#X text 982 331 <-- Feedback (try -0.3) -0.9 0.9;
#X msg 929 325 0.8;
#X obj 57 188 *~ 1;
#X obj 542 71 snapshot~;
#X obj 610 56 *~ 1000;
#X obj 666 71 threshold~ 440 4 410 100;
#X obj 610 29 r~ x-axis2;
#X msg 666 101 1;
#X msg 621 104 0;
#X obj 582 103 max;
#X obj 582 167 s maxaccel2;
#X obj 701 220 dac~ 1 2;
#X obj 766 147 r volume2;
#X obj 703 127 readsf~ 2;
#X obj 766 127 r volume2;
#X msg 703 101 open bass.wav \, 2;
#X obj 702 176 *~ 0;
#X obj 745 176 *~ 0;
#X obj 600 138 metro 1;
#X floatatom 537 104 5 0 0 0 - - -;
#X obj 621 85 del 1;
#X obj 284 61 snapshot~;
#X obj 188 46 *~ 1000;
#X obj 96 83 threshold~ 440 4 410 100;
#X msg 264 98 1;
#X msg 297 99 0;
#X obj 342 123 max;
#X obj 131 212 dac~ 1 2;
#X obj 133 139 readsf~ 2;
#X msg 133 113 open bass.wav \, 2;
#X obj 132 188 *~ 0;
#X obj 175 188 *~ 0;
#X obj 285 123 metro 1;
#X floatatom 377 124 5 0 0 0 - - -;
#X obj 297 148 del 1;
#X obj 188 19 r~ x-axis1;
#X obj 196 139 r volume1;
#X obj 196 159 r volume1;
#X obj 342 147 s maxaccel1;
#X obj 837 125 r~ output;
#X text 615 290 Write to delay lines;
#X obj 836 147 r volume2;
#X obj 780 176 *~ 0;
#X connect 0 0 1 0;
#X connect 1 0 2 0;
#X connect 3 0 4 0;
#X connect 4 0 5 0;
#X connect 8 0 9 0;
#X connect 9 0 22 0;
#X connect 10 0 11 0;
#X connect 11 0 12 0;
#X connect 12 0 18 0;
#X connect 12 0 29 0;
#X connect 13 0 17 0;
#X connect 14 0 15 0;
#X connect 14 0 16 0;
#X connect 15 0 13 0;
#X connect 16 0 8 0;
#X connect 17 0 10 0;
#X connect 18 0 6 0;
#X connect 19 0 7 0;
#X connect 22 0 19 0;
#X connect 22 0 29 0;
#X connect 26 0 30 0;
#X connect 26 0 27 0;
#X connect 26 0 32 0;
#X connect 27 0 11 1;
#X connect 27 0 10 1;
#X connect 27 0 9 1;
#X connect 27 0 8 1;
#X connect 28 0 33 0;
#X connect 30 0 14 0;
#X connect 32 0 19 1;
#X connect 32 0 18 1;
#X connect 34 0 40 0;
#X connect 35 0 36 0;
#X connect 35 0 34 0;
#X connect 36 0 46 0;
#X connect 36 0 38 0;
#X connect 36 0 51 0;
#X connect 37 0 35 0;
#X connect 38 0 49 0;
#X connect 39 0 40 1;
#X connect 39 0 49 0;
#X connect 40 0 50 0;
#X connect 40 0 41 0;
#X connect 40 0 3 0;
#X connect 40 0 0 1;
#X connect 43 0 47 1;
#X connect 44 0 47 0;
#X connect 44 0 7 0;
#X connect 44 1 48 0;
#X connect 44 1 6 0;
#X connect 45 0 48 1;
#X connect 46 0 44 0;
#X connect 47 0 42 0;
#X connect 48 0 42 1;
#X connect 49 0 34 0;
#X connect 50 0 40 1;
#X connect 51 0 39 0;
#X connect 52 0 57 0;
#X connect 53 0 54 0;
#X connect 53 0 52 0;
#X connect 54 0 60 0;
#X connect 54 0 55 0;
#X connect 54 0 65 0;
#X connect 55 0 63 0;
#X connect 56 0 57 1;
#X connect 56 0 63 0;
#X connect 57 0 64 0;
#X connect 57 0 69 0;
#X connect 57 0 0 0;
#X connect 57 0 3 1;
#X connect 59 0 61 0;
#X connect 59 1 62 0;
#X connect 60 0 59 0;
#X connect 61 0 58 0;
#X connect 62 0 58 1;
#X connect 63 0 52 0;
#X connect 64 0 57 1;
#X connect 65 0 56 0;
#X connect 66 0 53 0;
#X connect 67 0 62 1;
#X connect 68 0 61 1;
#X connect 70 0 73 0;
#X connect 72 0 73 1;
#X connect 73 0 42 0;
#X connect 73 0 42 1;
