#N canvas -8 -8 1366 685 10;
#X msg 42 157 open bass.wav \, 1;
#X obj 42 128 bng 15 250 50 0 empty empty empty 17 7 0 10 -262144 -1
-1;
#X obj 41 50 *~ 1000;
#X obj 41 23 r~ x-axis;
#X obj 42 89 threshold~ 440 4 410 100;
#X obj 516 144 snapshot~;
#X obj 789 199 readsf~;
#X obj 789 141 bng 15 250 50 0 empty empty empty 17 7 0 10 -262144
-1 -1;
#X obj 721 60 *~ 1000;
#X obj 722 99 threshold~ 440 4 410 100;
#X obj 721 33 r~ x-axis2;
#X msg 789 173 open bass.wav \, 1;
#X obj 252 92 snapshot~;
#X obj 342 320 -;
#X obj 334 382 abs;
#X obj 42 279 *~;
#X obj 42 203 readsf~;
#X obj 788 229 *~;
#X obj 334 435 s differnce;
#X msg 184 141 1;
#X msg 202 174 0;
#X obj 252 167 max;
#X obj 252 30 metro 1;
#X floatatom 337 166 5 0 0 0 - - -;
#X msg 565 15 1;
#X msg 575 48 0;
#X obj 460 29 metro 1;
#X obj 496 214 max;
#X floatatom 437 216 5 0 0 0 - - -;
#X obj 252 236 s maxaccel1;
#X obj 522 279 s maxaccel2;
#X obj 452 310 -;
#X obj 444 372 abs;
#X obj 444 425 s differnce;
#X obj 43 491 dac~ 1 2;
#X obj 43 336 *~ 1;
#X obj 64 306 r volume1;
#X obj 325 563 delwrite~ phase2 100;
#X obj 321 531 delwrite~ phase1 100;
#X obj 269 666 *~ 2;
#X obj 269 686 +~ 2;
#X obj 308 708 *~ 2;
#X obj 307 731 +~ 2;
#X obj 307 757 vd~ phase2;
#X obj 308 664 wrap~;
#X obj 278 609 phasor~;
#X obj 307 643 +~ 0.5;
#X obj 269 643 cos~;
#X obj 308 684 cos~;
#X obj 307 780 *~ 0.8;
#X obj 269 861 *~ 0.8;
#X text 183 574 <-- Write to delay lines;
#X text 379 754 <-- Read from delay line 2;
#X text 373 818 <-- Read from delay line 1;
#X obj 270 818 vd~ phase1;
#X text 341 609 <-- Low Frequency Oscillator (LFO);
#X text 675 694 <-- Depth (try 2.4) 0-3;
#X text 670 595 <-- Speed (try 0.7)0 -10;
#X obj 515 561 loadbang;
#X msg 637 690 0;
#X obj 778 422 dac~ 1 2;
#X obj 807 338 *~ 1;
#X obj 737 358 *~ 1;
#X obj 839 286 r volume2;
#X obj 727 305 r~ output;
#X obj 93 354 r~ output;
#X obj 183 786 s~ output;
#X msg 635 595 0;
#X text 693 815 <-- Feedback (try -0.3) -0.9 0.9;
#X msg 655 819 0.8;
#X obj 115 385 r volume1;
#X obj 94 417 *~ 1;
#X connect 0 0 16 0;
#X connect 1 0 0 0;
#X connect 1 0 19 0;
#X connect 2 0 4 0;
#X connect 2 0 12 0;
#X connect 3 0 2 0;
#X connect 4 0 1 0;
#X connect 5 0 27 0;
#X connect 6 0 17 0;
#X connect 6 0 17 1;
#X connect 6 1 25 0;
#X connect 7 0 11 0;
#X connect 7 0 24 0;
#X connect 8 0 9 0;
#X connect 8 0 5 0;
#X connect 9 0 7 0;
#X connect 10 0 8 0;
#X connect 11 0 6 0;
#X connect 12 0 21 0;
#X connect 13 0 14 0;
#X connect 14 0 18 0;
#X connect 15 0 35 0;
#X connect 16 0 15 0;
#X connect 16 0 15 1;
#X connect 16 0 38 0;
#X connect 16 0 37 0;
#X connect 16 1 20 0;
#X connect 17 0 61 0;
#X connect 19 0 22 0;
#X connect 20 0 22 0;
#X connect 20 0 21 1;
#X connect 21 0 23 0;
#X connect 21 0 13 0;
#X connect 21 0 29 0;
#X connect 21 0 31 1;
#X connect 22 0 12 0;
#X connect 23 0 21 1;
#X connect 24 0 26 0;
#X connect 25 0 26 0;
#X connect 25 0 27 1;
#X connect 26 0 5 0;
#X connect 27 0 28 0;
#X connect 27 0 13 1;
#X connect 27 0 30 0;
#X connect 27 0 31 0;
#X connect 28 0 27 1;
#X connect 31 0 32 0;
#X connect 32 0 33 0;
#X connect 35 0 34 0;
#X connect 35 0 34 1;
#X connect 36 0 35 1;
#X connect 39 0 40 0;
#X connect 40 0 54 0;
#X connect 41 0 42 0;
#X connect 42 0 43 0;
#X connect 43 0 49 0;
#X connect 43 0 66 0;
#X connect 44 0 48 0;
#X connect 45 0 46 0;
#X connect 45 0 47 0;
#X connect 46 0 44 0;
#X connect 47 0 39 0;
#X connect 48 0 41 0;
#X connect 49 0 37 0;
#X connect 50 0 38 0;
#X connect 54 0 50 0;
#X connect 54 0 66 0;
#X connect 58 0 67 0;
#X connect 58 0 59 0;
#X connect 58 0 69 0;
#X connect 59 0 42 1;
#X connect 59 0 41 1;
#X connect 59 0 40 1;
#X connect 59 0 39 1;
#X connect 61 0 60 0;
#X connect 61 0 60 1;
#X connect 63 0 61 1;
#X connect 65 0 71 0;
#X connect 67 0 45 0;
#X connect 69 0 50 1;
#X connect 69 0 49 1;
#X connect 70 0 71 1;
#X connect 71 0 34 0;
#X connect 71 0 34 1;
