#N canvas 277 216 691 420 10;
#X obj 68 50 r differnce;
#X obj 362 39 r maxaccel1;
#X obj 452 39 r maxaccel2;
#X obj 418 264 s volume1;
#X obj 493 264 s volume2;
#X obj 452 100 clip 0 1;
#X obj 362 68 / 1000;
#X obj 452 66 / 1000;
#X obj 67 91 / 1000;
#X obj 24 145 float \$1;
#X obj 13 229 expr ($f1-0)/(0.7-0) * (1-0) + 0;
#X text 24 379 y when x is betwwen a and b \, then bocomes d and c
Y = (X-A)/(B-A) * (D-C) + C;
#X obj 323 264 print volume1;
#X obj 362 100 clip 0 1;
#X obj 233 264 print volume2;
#X obj 323 149 expr ($f1-0.44)/(0.8-0.44) * (1-0) + 0;
#X obj 323 179 expr ($f1-0.44)/(0.8-0.44) * (1-0) + 0;
#X connect 0 0 8 0;
#X connect 1 0 6 0;
#X connect 2 0 7 0;
#X connect 5 0 15 0;
#X connect 6 0 13 0;
#X connect 7 0 5 0;
#X connect 8 0 9 0;
#X connect 9 0 10 0;
#X connect 13 0 16 0;
#X connect 15 0 4 0;
#X connect 16 0 3 0;
