#N canvas 123 188 1192 420 10;
#X obj 28 40 r differnce;
#X obj 472 39 r maxaccel1;
#X obj 562 39 r maxaccel2;
#X obj 887 314 s volume1;
#X obj 962 314 s volume2;
#X obj 562 96 clip 0 1;
#X obj 472 68 / 1000;
#X obj 562 66 / 1000;
#X obj 138 54 / 1000;
#X obj 138 78 float \$1;
#X obj 138 111 expr ($f1-0)/(0.7-0) * (1-0) + 0;
#X text 674 69 y when x is betwwen a and b \, then bocomes d and c
Y = (X-A)/(B-A) * (D-C) + C;
#X obj 792 314 print volume1;
#X obj 472 100 clip 0 1;
#X obj 702 314 print volume2;
#X obj 562 142 * 2;
#X obj 752 178 expr ($f1-0.44)/(0.8-0.44) * (1-0) + 0;
#X obj 472 145 * 2;
#X obj 472 179 expr ($f1-0.88)/(1.53-0.88) * (1-0.2) + 0.2;
#X obj 472 209 expr ($f1-0.88)/(1.53-0.88) * (1-0.2) + 0.2;
#X obj 28 112 print difference;
#X text 552 160 First mapping 0.2-1 with *2;
#X text 792 160 second mapping 0-1;
#X text 1032 160 third mapping 0-2;
#X obj 992 178 expr ($f1-0.44)/(0.8-0.44) * (2-0) + 0;
#X obj 752 208 expr ($f1-0.44)/(0.8-0.44) * (1-0) + 0;
#X obj 992 208 expr ($f1-0.44)/(0.8-0.44) * (2-0) + 0;
#X connect 0 0 8 0;
#X connect 0 0 20 0;
#X connect 1 0 6 0;
#X connect 2 0 7 0;
#X connect 5 0 15 0;
#X connect 6 0 13 0;
#X connect 7 0 5 0;
#X connect 8 0 9 0;
#X connect 9 0 10 0;
#X connect 13 0 17 0;
#X connect 15 0 19 0;
#X connect 17 0 18 0;
#X connect 18 0 3 0;
#X connect 19 0 4 0;
