#N canvas 319 146 1101 516 10;
#X obj 388 122 *~ 2;
#X obj 388 142 +~ 2;
#X obj 427 164 *~ 2;
#X obj 426 187 +~ 2;
#X obj 164 107 delwrite~ phase2 100;
#X obj 426 213 vd~ phase2;
#X obj 427 120 wrap~;
#X obj 397 65 phasor~;
#X obj 426 99 +~ 0.5;
#X obj 388 99 cos~;
#X obj 427 140 cos~;
#X obj 426 236 *~ 0.8;
#X obj 388 317 *~ 0.8;
#X text 302 30 <-- Write to delay lines;
#X text 498 210 <-- Read from delay line 2;
#X text 492 274 <-- Read from delay line 1;
#X obj 389 274 vd~ phase1;
#X obj 175 37 delwrite~ phase1 100;
#X text 460 65 <-- Low Frequency Oscillator (LFO);
#X obj 36 24 r~ delayline1;
#X obj 497 324 s~ output1;
#X text 821 271 <-- Feedback (try -0.3) -0.9-0.9;
#X text 794 150 <-- Depth (try 2.4) 0-3;
#X text 789 51 <-- Speed (try 0.7)0 -10;
#X obj 634 17 loadbang;
#X msg 754 51 4;
#X msg 756 146 0;
#X msg 774 275 -0.8;
#X connect 0 0 1 0;
#X connect 1 0 16 0;
#X connect 2 0 3 0;
#X connect 3 0 5 0;
#X connect 5 0 11 0;
#X connect 5 0 20 0;
#X connect 6 0 10 0;
#X connect 7 0 8 0;
#X connect 7 0 9 0;
#X connect 8 0 6 0;
#X connect 9 0 0 0;
#X connect 10 0 2 0;
#X connect 11 0 4 0;
#X connect 12 0 17 0;
#X connect 16 0 12 0;
#X connect 16 0 20 0;
#X connect 24 0 25 0;
#X connect 24 0 26 0;
#X connect 24 0 27 0;
#X connect 25 0 7 0;
#X connect 26 0 3 1;
#X connect 26 0 2 1;
#X connect 26 0 1 1;
#X connect 26 0 0 1;
#X connect 27 0 12 1;
#X connect 27 0 11 1;
