#N canvas 595 259 892 516 10;
#X obj 79 322 dac~;
#X obj 550 15 hsl 128 15 0 10 0 0 empty empty empty -2 -8 0 10 -262144
-1 -1 12700 1;
#X obj 388 122 *~ 2;
#X obj 388 142 +~ 2;
#X obj 427 164 *~ 2;
#X obj 426 187 +~ 2;
#X obj 174 96 delwrite~ phase2 100;
#X obj 426 213 vd~ phase2;
#X obj 427 120 wrap~;
#X obj 397 65 phasor~;
#X obj 426 99 +~ 0.5;
#X obj 388 99 cos~;
#X obj 427 140 cos~;
#X obj 553 112 hsl 128 15 0 3 0 0 empty empty empty -2 -8 0 10 -262144
-1 -1 12700 1;
#X obj 426 236 *~ 0.8;
#X obj 388 297 *~ 0.8;
#X obj 497 324 s~ output;
#X obj 161 282 r~ output;
#X obj 582 231 hsl 128 15 -0.9 0.9 0 0 empty empty empty -2 -8 0 10
-262144 -1 -1 0 1;
#X text 302 30 <-- Write to delay lines;
#X text 498 210 <-- Read from delay line 2;
#X text 492 274 <-- Read from delay line 1;
#X obj 389 274 vd~ phase1;
#X obj 175 36 delwrite~ phase1 100;
#X text 460 65 <-- Low Frequency Oscillator (LFO);
#X floatatom 547 39 5 0 0 0 - - -;
#X floatatom 551 138 5 0 0 0 - - -;
#X floatatom 579 252 5 0 0 0 - - -;
#X text 690 11 <-- Speed (try 0.7);
#X text 695 110 <-- Depth (try 2.4);
#X text 722 231 <-- Feedback (try -0.3);
#X text 493 405 comment;
#X obj 16 35 readsf~;
#X msg 16 9 open bass.wav \, 1;
#X obj 22 -82 bng 15 250 50 0 empty empty empty 17 7 0 10 -262144 -1
-1;
#X obj 21 -34 metro 1000;
#X msg 64 -69 1000;
#X msg 144 -43 0;
#X connect 1 0 9 0;
#X connect 1 0 25 0;
#X connect 2 0 3 0;
#X connect 3 0 22 0;
#X connect 4 0 5 0;
#X connect 5 0 7 0;
#X connect 7 0 14 0;
#X connect 7 0 16 0;
#X connect 8 0 12 0;
#X connect 9 0 10 0;
#X connect 9 0 11 0;
#X connect 10 0 8 0;
#X connect 11 0 2 0;
#X connect 12 0 4 0;
#X connect 13 0 2 1;
#X connect 13 0 4 1;
#X connect 13 0 3 1;
#X connect 13 0 5 1;
#X connect 13 0 26 0;
#X connect 14 0 6 0;
#X connect 15 0 23 0;
#X connect 17 0 0 1;
#X connect 17 0 0 0;
#X connect 18 0 15 1;
#X connect 18 0 14 1;
#X connect 18 0 27 0;
#X connect 22 0 15 0;
#X connect 22 0 16 0;
#X connect 32 0 23 0;
#X connect 32 0 6 0;
#X connect 32 0 0 1;
#X connect 32 0 0 0;
#X connect 33 0 32 0;
#X connect 34 0 35 0;
#X connect 35 0 33 0;
#X connect 36 0 35 1;
#X connect 37 0 35 1;
