#N canvas 853 157 885 608 10;
#X obj 104 328 textfile;
#X msg 312 270 clear;
#X obj 122 16 loadbang;
#X msg 413 350 add \$1;
#X floatatom 410 282 5 0 0 0 - - -;
#X obj 410 176 snapshot~;
#X obj 256 416 print;
#X msg 252 381 File written;
#X obj 122 39 bng 15 250 50 0 empty empty empty 17 7 0 10 -262144 -1
-1;
#X obj 410 317 pack f;
#X obj 99 217 trigger bang bang;
#X obj 413 64 r~ x-axis;
#X obj 406 222 * 1;
#X obj 138 178 metro 10000;
#X obj 273 129 metro 0.02;
#X msg 117 79 1;
#X msg 159 131 0;
#X msg 133 274 write SensorData.txt;
#X connect 1 0 0 0;
#X connect 3 0 0 0;
#X connect 4 0 9 0;
#X connect 5 0 12 0;
#X connect 7 0 6 0;
#X connect 8 0 15 0;
#X connect 9 0 3 0;
#X connect 10 0 1 0;
#X connect 10 1 17 0;
#X connect 12 0 4 0;
#X connect 13 0 10 0;
#X connect 14 0 5 0;
#X connect 15 0 14 0;
#X connect 15 0 13 0;
#X connect 17 0 0 0;
#X connect 17 0 7 0;
