#N canvas 297 36 885 608 10;
#X obj 99 38 loadbang;
#X obj 132 181 writesf~;
#X msg 99 91 open SensorData.wav \, start;
#X obj 329 48 loadbang;
#X obj 362 191 writesf~;
#X obj 362 138 r~ x-axis2;
#X msg 329 101 open SensorData2.wav \, start;
#X obj 132 128 r~ x-axis1;
#X connect 0 0 2 0;
#X connect 2 0 1 0;
#X connect 3 0 6 0;
#X connect 5 0 4 0;
#X connect 6 0 4 0;
#X connect 7 0 1 0;
