#N canvas 378 87 885 608 10;
#X obj 107 372 textfile;
#X msg 312 270 clear;
#X obj 122 16 loadbang;
#X floatatom 408 256 5 0 0 0 - - -;
#X obj 404 200 snapshot~;
#X obj 259 460 print;
#X msg 255 425 File written;
#X obj 122 49 bng 15 250 50 0 empty empty empty 17 7 0 10 -262144 -1
-1;
#X obj 99 217 trigger bang bang;
#X obj 495 48 r~ x-axis;
#X obj 404 226 * 1;
#X obj 275 105 metro 0.02;
#X msg 117 79 1;
#X msg 159 131 0;
#X msg 133 274 write SensorData.txt;
#X obj 404 48 r~ x-axis2;
#X obj 419 153 trigger bang bang;
#X floatatom 498 266 5 0 0 0 - - -;
#X obj 494 210 snapshot~;
#X obj 494 236 * 1;
#X obj 407 304 pack f;
#X msg 517 357 add 2g:\$1;
#X obj 501 311 pack f;
#X msg 407 342 add 1g:\$1;
#X obj 138 177 metro 5000;
#X connect 1 0 0 0;
#X connect 3 0 20 0;
#X connect 4 0 10 0;
#X connect 6 0 5 0;
#X connect 7 0 12 0;
#X connect 8 0 1 0;
#X connect 8 1 14 0;
#X connect 10 0 3 0;
#X connect 11 0 18 0;
#X connect 12 0 11 0;
#X connect 12 0 24 0;
#X connect 14 0 0 0;
#X connect 14 0 6 0;
#X connect 17 0 22 0;
#X connect 18 0 19 0;
#X connect 19 0 17 0;
#X connect 20 0 23 0;
#X connect 21 0 0 0;
#X connect 22 0 21 0;
#X connect 23 0 0 0;
#X connect 24 0 8 0;
