#N canvas 577 120 743 566 10;
#X obj 112 245 rpole~ 1;
#X obj 111 63 adc~ 3;
#X obj 112 266 hip~ 1;
#X obj 112 175 lop~ 100;
#X obj 262 245 rpole~ 1;
#X obj 262 266 hip~ 1;
#X obj 262 175 lop~ 100;
#X obj 412 245 rpole~ 1;
#X obj 412 266 hip~ 1;
#X obj 412 175 lop~ 100;
#X obj 240 68 adc~ 4;
#X obj 112 299 *~;
#X obj 262 299 *~;
#X obj 412 299 *~;
#X obj 35 336 sig~ 1;
#X obj 95 365 /~;
#X obj 112 339 q8_rsqrt~;
#X obj 573 441 samplerate~;
#X obj 476 395 loadbang;
#X obj 523 461 /;
#X obj 523 481 s _invsr;
#X obj 426 197 r _invsr;
#X obj 276 197 r _invsr;
#X obj 126 197 r _invsr;
#X obj 412 217 *~ 0;
#X obj 262 217 *~ 0;
#X obj 112 217 *~ 0;
#X text 69 31 Integrate accelerometer data to estimate velocity;
#X text 69 41 =================================================;
#X obj 395 71 adc~ 5;
#X obj 112 139 *~ 100;
#X obj 112 117 hip~ 2;
#X obj 262 139 *~ 100;
#X obj 262 117 hip~ 2;
#X obj 412 139 *~ 100;
#X obj 412 117 hip~ 2;
#X text 168 434 <<< thresholding (to avoid noise);
#X text 168 405 <<< smoothing;
#X text 146 366 d^2 = x^2 + y^2 + z^2;
#X text 206 340 <<< faster to calculate inverse sqrt;
#X text 506 245 <<< accumulate samples;
#X text 489 135 <<< pre-gain;
#X text 489 115 <<< centre around 0 (DC block);
#X text 506 265 <<< DC block;
#X obj 22 95 s~ x-axis;
#X obj 172 96 s~ y-axis;
#X obj 322 96 s~ z-axis;
#X text 483 72 adc~3 4 5: is analog in 0 \, 1 and 2;
#X text 488 93 s~ send a message;
#X obj 95 524 s~ Velocity;
#X obj 476 415 trigger bang bang;
#X obj 480 439 float 1;
#X text 583 481 <--normalized frequency;
#X text 184 490 <<< limiting the signal between two numbers;
#X obj 96 432 -~ 0.001;
#X obj 95 463 clip~ 0 10;
#X obj 95 406 lop~ 30;
#X connect 0 0 2 0;
#X connect 1 0 31 0;
#X connect 1 0 44 0;
#X connect 2 0 11 0;
#X connect 2 0 11 1;
#X connect 3 0 26 0;
#X connect 4 0 5 0;
#X connect 5 0 12 0;
#X connect 5 0 12 1;
#X connect 6 0 25 0;
#X connect 7 0 8 0;
#X connect 8 0 13 0;
#X connect 8 0 13 1;
#X connect 9 0 24 0;
#X connect 10 0 33 0;
#X connect 10 0 45 0;
#X connect 11 0 16 0;
#X connect 12 0 16 0;
#X connect 13 0 16 0;
#X connect 14 0 15 0;
#X connect 15 0 56 0;
#X connect 16 0 15 1;
#X connect 17 0 19 1;
#X connect 18 0 50 0;
#X connect 19 0 20 0;
#X connect 21 0 24 1;
#X connect 22 0 25 1;
#X connect 23 0 26 1;
#X connect 24 0 7 0;
#X connect 25 0 4 0;
#X connect 26 0 0 0;
#X connect 29 0 35 0;
#X connect 29 0 46 0;
#X connect 30 0 3 0;
#X connect 31 0 30 0;
#X connect 32 0 6 0;
#X connect 33 0 32 0;
#X connect 34 0 9 0;
#X connect 35 0 34 0;
#X connect 50 0 51 0;
#X connect 50 1 17 0;
#X connect 51 0 19 0;
#X connect 54 0 55 0;
#X connect 55 0 49 0;
#X connect 56 0 54 0;
