#N canvas 405 485 534 373 10;
#X obj 109 299 readsf~;
#X msg 109 273 open bass.wav \, 1;
#X obj 108 342 dac~;
#X obj 109 241 bng 15 250 50 0 empty empty empty 17 7 0 10 -262144
-1 -1;
#X floatatom 46 256 5 0 0 0 - - -;
#X floatatom 273 203 5 0 0 0 - - -;
#X obj 276 239 print;
#X obj 270 51 loadbang;
#X obj 270 84 metro 227;
#X obj 41 50 *~ 1000;
#X obj 41 23 r~ x-axis;
#X obj 48 139 threshold~ 422.5 10 400 100;
#X connect 0 0 2 0;
#X connect 0 0 2 1;
#X connect 1 0 0 0;
#X connect 3 0 1 0;
#X connect 5 0 6 0;
#X connect 7 0 8 0;
#X connect 9 0 11 0;
#X connect 10 0 9 0;
#X connect 11 0 3 0;
#X connect 11 0 4 0;
