#N canvas 668 255 534 373 10;
#X obj 283 200 s impact;
#X obj 71 46 r~ Velocity;
#X obj 171 5 loadbang;
#X obj 70 77 *~ 1000;
#X obj 138 226 readsf~;
#X msg 138 200 open bass.wav \, 1;
#X obj 137 269 dac~;
#X floatatom 302 73 5 0 0 0 - - -;
#X obj 120 115 threshold~ 100 1000 0 100;
#X obj 235 36 metro 500;
#X obj 153 162 trigger bang bang;
#X connect 1 0 3 0;
#X connect 2 0 1 0;
#X connect 2 0 9 0;
#X connect 3 0 8 0;
#X connect 4 0 6 0;
#X connect 4 0 6 1;
#X connect 5 0 4 0;
#X connect 7 0 8 1;
#X connect 8 0 10 0;
#X connect 9 0 7 0;
#X connect 10 0 5 0;
#X connect 10 1 0 0;
