#N canvas 300 112 975 578 10;
#X obj 126 180 readsf~;
#X msg 126 154 open bass.wav \, 1;
#X obj 125 223 dac~;
#X obj 126 122 bng 15 250 50 0 empty empty empty 17 7 0 10 -262144
-1 -1;
#X obj 125 51 *~ 1000;
#X obj 125 24 r~ x-axis;
#X obj 126 90 threshold~ 440 4 410 100;
#X obj 292 154 snapshot~;
#X obj 355 179 readsf~;
#X obj 354 222 dac~;
#X obj 355 121 bng 15 250 50 0 empty empty empty 17 7 0 10 -262144
-1 -1;
#X obj 354 53 *~ 1000;
#X obj 355 92 threshold~ 440 4 410 100;
#X obj 354 26 r~ x-axis2;
#X msg 355 153 open bass.wav \, 1;
#X obj 270 180 print sensor2;
#X obj 63 155 snapshot~;
#X obj 38 180 print sensor1;
#X connect 0 0 2 0;
#X connect 0 0 2 1;
#X connect 1 0 0 0;
#X connect 3 0 1 0;
#X connect 3 0 16 0;
#X connect 4 0 6 0;
#X connect 4 0 16 0;
#X connect 5 0 4 0;
#X connect 6 0 3 0;
#X connect 7 0 15 0;
#X connect 8 0 9 0;
#X connect 8 0 9 1;
#X connect 10 0 14 0;
#X connect 10 0 7 0;
#X connect 11 0 12 0;
#X connect 11 0 7 0;
#X connect 12 0 10 0;
#X connect 13 0 11 0;
#X connect 14 0 8 0;
#X connect 16 0 17 0;
