#N canvas 750 191 450 300 10;
#X text 40 42 LED output;
#X text 166 76 hit, f 7;
#X obj 164 109 r impact;
#X text 266 75 !hit;
#X obj 249 164 sig~ 0;
#X obj 184 231 dac~ 10;
#X obj 166 166 sig~ 1;
#X obj 249 101 loadbang;
#X obj 97 210 print;
#X msg 97 166 impact;
#X connect 2 0 6 0;
#X connect 2 0 9 0;
#X connect 4 0 5 0;
#X connect 6 0 5 0;
#X connect 7 0 4 0;
#X connect 9 0 8 0;
