#N canvas 70 182 676 315 10;
#X obj 87 124 dac~ 27 28 29 30;
#X obj 79 59 r~ x-axis;
#X obj 149 58 r~ y-axis;
#X obj 217 58 r~ z-axis;
#X obj 379 151 snapshot~;
#X floatatom 383 223 5 0 0 0 - - -;
#X obj 386 259 print;
#X obj 380 71 loadbang;
#X obj 381 187 change 0;
#X obj 224 90 r~ Velocity;
#X obj 478 98 r~ value;
#X obj 380 104 metro 200;
#X connect 1 0 0 0;
#X connect 2 0 0 1;
#X connect 3 0 0 2;
#X connect 4 0 8 0;
#X connect 5 0 6 0;
#X connect 8 0 5 0;
#X connect 9 0 0 3;
#X connect 11 0 4 0;
