#N canvas 55 258 676 315 10;
#X obj 87 124 dac~ 27 28 29 30;
#X obj 79 59 r~ x-axis;
#X obj 149 58 r~ y-axis;
#X obj 217 58 r~ z-axis;
#X obj 224 90 r~ Velocity;
#X connect 1 0 0 0;
#X connect 2 0 0 1;
#X connect 3 0 0 2;
#X connect 4 0 0 3;
