#N canvas 256 229 885 608 10;
#X obj 344 308 textfile;
#X msg 487 293 clear;
#X obj 324 225 pack f;
#X obj 326 167 i;
#X obj 648 182 metro;
#X obj 757 183 /;
#X obj 703 150 float 1;
#X obj 600 21 loadbang;
#X msg 324 249 add \$1;
#X msg 423 254 write Velocity.txt;
#X floatatom 318 199 5 0 0 0 - - -;
#X obj 311 95 *~ 1000;
#X obj 311 126 snapshot~;
#X obj 712 116 trigger bang bang bang;
#X obj 311 69 r~ Velocity;
#X obj 428 158 metro 10000;
#X obj 804 155 i 44100;
#X obj 715 216 * 1000;
#X connect 1 0 0 0;
#X connect 2 0 8 0;
#X connect 3 0 10 0;
#X connect 5 0 17 0;
#X connect 6 0 5 0;
#X connect 7 0 13 0;
#X connect 7 0 15 0;
#X connect 8 0 0 0;
#X connect 9 0 0 0;
#X connect 9 0 1 0;
#X connect 10 0 2 0;
#X connect 11 0 12 0;
#X connect 12 0 3 0;
#X connect 13 0 4 0;
#X connect 13 1 6 0;
#X connect 13 2 16 0;
#X connect 14 0 11 0;
#X connect 15 0 9 0;
#X connect 16 0 5 1;
#X connect 17 0 4 1;
