#N canvas 297 36 885 608 10;
#X obj 99 38 loadbang;
#X obj 99 183 print;
#X msg 99 140 File written;
#X obj 272 108 r~ x-axis;
#X obj 342 108 r~ x-axis2;
#X obj 272 161 writesf~;
#X msg 99 91 open SensorData.wav \, start;
#X connect 0 0 6 0;
#X connect 2 0 1 0;
#X connect 3 0 5 0;
#X connect 6 0 2 0;
#X connect 6 0 5 0;
