#N canvas 766 255 885 608 10;
#X obj 104 328 textfile;
#X msg 312 270 clear;
#X obj 598 132 metro;
#X obj 707 133 /;
#X obj 653 100 float 1;
#X obj 182 66 loadbang;
#X msg 413 350 add \$1;
#X msg 133 274 write Velocity.txt;
#X floatatom 410 282 5 0 0 0 - - -;
#X obj 410 176 snapshot~;
#X obj 662 66 trigger bang bang bang;
#X obj 754 105 i 44100;
#X obj 645 166 * 1000;
#X obj 256 416 print;
#X msg 252 381 File written;
#X obj 176 119 bng 15 250 50 0 empty empty empty 17 7 0 10 -262144
-1 -1;
#X obj 410 317 pack f;
#X obj 543 335 print;
#X obj 99 217 trigger bang bang;
#X obj 473 144 r~ x-axis;
#X obj 406 222 * 1;
#X obj 138 178 metro 5000;
#X obj 273 129 metro 10;
#X connect 1 0 0 0;
#X connect 3 0 12 0;
#X connect 4 0 3 0;
#X connect 5 0 15 0;
#X connect 6 0 0 0;
#X connect 7 0 0 0;
#X connect 7 0 14 0;
#X connect 8 0 16 0;
#X connect 9 0 20 0;
#X connect 10 0 2 0;
#X connect 10 1 4 0;
#X connect 10 2 11 0;
#X connect 11 0 3 1;
#X connect 12 0 2 1;
#X connect 14 0 13 0;
#X connect 15 0 21 0;
#X connect 15 0 22 0;
#X connect 16 0 6 0;
#X connect 18 0 1 0;
#X connect 18 1 7 0;
#X connect 19 0 9 0;
#X connect 20 0 8 0;
#X connect 21 0 18 0;
#X connect 22 0 9 0;
